<svg width="24" height="24" viewBox="0 0 24 24" fill="none" xmlns="http://www.w3.org/2000/svg">
<path fill-rule="evenodd" clip-rule="evenodd" d="M2.43597 4.18404C2 5.03969 2 6.15979 2 8.4V15.6C2 17.8402 2 18.9603 2.43597 19.816C2.81947 20.5686 3.43139 21.1805 4.18404 21.564C5.03969 22 6.15979 22 8.4 22H15.6C17.8402 22 18.9603 22 19.816 21.564C20.5686 21.1805 21.1805 20.5686 21.564 19.816C22 18.9603 22 17.8402 22 15.6V8.4C22 6.15979 22 5.03969 21.564 4.18404C21.1805 3.43139 20.5686 2.81947 19.816 2.43597C18.9603 2 17.8402 2 15.6 2H8.4C6.15979 2 5.03969 2 4.18404 2.43597C3.43139 2.81947 2.81947 3.43139 2.43597 4.18404ZM9.70391 17.4895C9.97207 17.8298 10.3017 18 10.6927 18C11.1173 18 11.4469 17.8212 11.6816 17.4636L17.7654 7.73901C17.8492 7.60634 17.9078 7.47945 17.9413 7.35833C17.9804 7.2372 18 7.11896 18 7.0036C18 6.70944 17.905 6.47008 17.7151 6.28551C17.5307 6.09517 17.2933 6 17.0028 6C16.8017 6 16.6341 6.04326 16.5 6.12978C16.3659 6.21053 16.2346 6.34895 16.1061 6.54506L10.6592 15.491L7.84358 11.7534C7.62011 11.4593 7.34358 11.3122 7.01397 11.3122C6.71788 11.3122 6.47486 11.4102 6.28492 11.6063C6.09497 11.7967 6 12.0389 6 12.3331C6 12.4658 6.02235 12.5955 6.06704 12.7224C6.11173 12.8435 6.18715 12.9704 6.2933 13.1031L9.70391 17.4895Z" fill="#1A1B22"/>
</svg>
