<svg width="24" height="24" viewBox="0 0 24 24" fill="none" xmlns="http://www.w3.org/2000/svg">
<path fill-rule="evenodd" clip-rule="evenodd" d="M15.6 4H8.4C7.24689 4 6.50235 4.00156 5.93567 4.04785C5.39235 4.09225 5.19091 4.1676 5.09202 4.21799C4.71569 4.40973 4.40973 4.71569 4.21799 5.09202C4.1676 5.19091 4.09225 5.39235 4.04785 5.93567C4.00156 6.50235 4 7.24689 4 8.4V15.6C4 16.7531 4.00156 17.4977 4.04785 18.0643C4.09225 18.6077 4.1676 18.8091 4.21799 18.908C4.40973 19.2843 4.71569 19.5903 5.09202 19.782C5.19091 19.8324 5.39235 19.9078 5.93567 19.9521C6.50235 19.9984 7.24689 20 8.4 20H15.6C16.7531 20 17.4977 19.9984 18.0643 19.9521C18.6077 19.9078 18.8091 19.8324 18.908 19.782C19.2843 19.5903 19.5903 19.2843 19.782 18.908C19.8324 18.8091 19.9078 18.6077 19.9521 18.0643C19.9984 17.4977 20 16.7531 20 15.6V8.4C20 7.24689 19.9984 6.50235 19.9521 5.93567C19.9078 5.39235 19.8324 5.19091 19.782 5.09202C19.5903 4.71569 19.2843 4.40973 18.908 4.21799C18.8091 4.1676 18.6077 4.09225 18.0643 4.04785C17.4977 4.00156 16.7531 4 15.6 4ZM2.43597 4.18404C2 5.03969 2 6.15979 2 8.4V15.6C2 17.8402 2 18.9603 2.43597 19.816C2.81947 20.5686 3.43139 21.1805 4.18404 21.564C5.03969 22 6.15979 22 8.4 22H15.6C17.8402 22 18.9603 22 19.816 21.564C20.5686 21.1805 21.1805 20.5686 21.564 19.816C22 18.9603 22 17.8402 22 15.6V8.4C22 6.15979 22 5.03969 21.564 4.18404C21.1805 3.43139 20.5686 2.81947 19.816 2.43597C18.9603 2 17.8402 2 15.6 2H8.4C6.15979 2 5.03969 2 4.18404 2.43597C3.43139 2.81947 2.81947 3.43139 2.43597 4.18404Z" fill="#1A1B22"/>
</svg>
